<svg width="389" height="200" viewBox="0 0 389 200" fill="none" xmlns="http://www.w3.org/2000/svg">
    <g opacity="0.5">
        <path d="M388 165.651H352V199H388V165.651Z" fill="#E5EEF5" stroke="#617586" stroke-width="0.5" stroke-linejoin="round"/>
        <path d="M359.237 170.92H356.223V173.858H359.237V170.92Z" fill="#E5EEF5" stroke="#617586" stroke-width="0.5" stroke-miterlimit="10"/>
        <path d="M367.417 170.92H364.402V173.858H367.417V170.92Z" fill="#E5EEF5" stroke="#617586" stroke-width="0.5" stroke-miterlimit="10"/>
        <path d="M375.596 170.92H372.582V173.858H375.596V170.92Z" fill="#E5EEF5" stroke="#617586" stroke-width="0.5" stroke-miterlimit="10"/>
        <path d="M383.766 170.92H380.752V173.858H383.766V170.92Z" fill="#E5EEF5" stroke="#617586" stroke-width="0.5" stroke-miterlimit="10"/>
        <path d="M359.237 175.244H356.223V178.183H359.237V175.244Z" fill="#E5EEF5" stroke="#617586" stroke-width="0.5" stroke-miterlimit="10"/>
        <path d="M367.417 175.244H364.402V178.183H367.417V175.244Z" fill="#E5EEF5" stroke="#617586" stroke-width="0.5" stroke-miterlimit="10"/>
        <path d="M375.596 175.244H372.582V178.183H375.596V175.244Z" fill="#E5EEF5" stroke="#617586" stroke-width="0.5" stroke-miterlimit="10"/>
        <path d="M383.766 175.244H380.752V178.183H383.766V175.244Z" fill="#E5EEF5" stroke="#617586" stroke-width="0.5" stroke-miterlimit="10"/>
        <path d="M359.237 179.575H356.223V182.514H359.237V179.575Z" fill="#E5EEF5" stroke="#617586" stroke-width="0.5" stroke-miterlimit="10"/>
        <path d="M367.417 179.575H364.402V182.514H367.417V179.575Z" fill="#E5EEF5" stroke="#617586" stroke-width="0.5" stroke-miterlimit="10"/>
        <path d="M375.596 179.575H372.582V182.514H375.596V179.575Z" fill="#E5EEF5" stroke="#617586" stroke-width="0.5" stroke-miterlimit="10"/>
        <path d="M383.766 179.575H380.752V182.514H383.766V179.575Z" fill="#E5EEF5" stroke="#617586" stroke-width="0.5" stroke-miterlimit="10"/>
        <path d="M359.237 183.899H356.223V186.838H359.237V183.899Z" fill="#E5EEF5" stroke="#617586" stroke-width="0.5" stroke-miterlimit="10"/>
        <path d="M367.417 183.899H364.402V186.838H367.417V183.899Z" fill="#E5EEF5" stroke="#617586" stroke-width="0.5" stroke-miterlimit="10"/>
        <path d="M375.596 183.899H372.582V186.838H375.596V183.899Z" fill="#E5EEF5" stroke="#617586" stroke-width="0.5" stroke-miterlimit="10"/>
        <path d="M383.766 183.899H380.752V186.838H383.766V183.899Z" fill="#E5EEF5" stroke="#617586" stroke-width="0.5" stroke-miterlimit="10"/>
        <path d="M359.237 188.223H356.223V191.161H359.237V188.223Z" fill="#E5EEF5" stroke="#617586" stroke-width="0.5" stroke-miterlimit="10"/>
        <path d="M367.417 188.223H364.402V191.161H367.417V188.223Z" fill="#E5EEF5" stroke="#617586" stroke-width="0.5" stroke-miterlimit="10"/>
        <path d="M375.596 188.223H372.582V191.161H375.596V188.223Z" fill="#E5EEF5" stroke="#617586" stroke-width="0.5" stroke-miterlimit="10"/>
        <path d="M383.766 188.223H380.752V191.161H383.766V188.223Z" fill="#E5EEF5" stroke="#617586" stroke-width="0.5" stroke-miterlimit="10"/>
        <path d="M387.99 165.652L380.078 161H360.854L352 165.652H387.99Z" fill="#E5EEF5" stroke="#617586" stroke-width="0.5" stroke-miterlimit="1"/>
        <path d="M387.99 168.29H352" stroke="#617586" stroke-width="0.5" stroke-miterlimit="10"/>
        <path d="M387.99 193.8H352" stroke="#617586" stroke-width="0.5" stroke-miterlimit="10"/>
        <path d="M365 153.371H334V199H365V153.371Z" fill="#E5EEF5" stroke="#617586" stroke-width="0.5" stroke-linejoin="round"/>
        <path d="M343.76 160.584H341.16V164.614H343.76V160.584Z" fill="#E5EEF5" stroke="#617586" stroke-width="0.5" stroke-miterlimit="10"/>
        <path d="M350.799 160.584H348.199V164.614H350.799V160.584Z" fill="#E5EEF5" stroke="#617586" stroke-width="0.5" stroke-miterlimit="10"/>
        <path d="M357.849 160.584H355.25V164.614H357.849V160.584Z" fill="#E5EEF5" stroke="#617586" stroke-width="0.5" stroke-miterlimit="10"/>
        <path d="M343.76 166.495H341.16V170.526H343.76V166.495Z" fill="#E5EEF5" stroke="#617586" stroke-width="0.5" stroke-miterlimit="10"/>
        <path d="M350.799 166.495H348.199V170.526H350.799V166.495Z" fill="#E5EEF5" stroke="#617586" stroke-width="0.5" stroke-miterlimit="10"/>
        <path d="M357.849 166.495H355.25V170.526H357.849V166.495Z" fill="#E5EEF5" stroke="#617586" stroke-width="0.5" stroke-miterlimit="10"/>
        <path d="M343.76 172.417H341.16V176.447H343.76V172.417Z" fill="#E5EEF5" stroke="#617586" stroke-width="0.5" stroke-miterlimit="10"/>
        <path d="M350.799 172.417H348.199V176.447H350.799V172.417Z" fill="#E5EEF5" stroke="#617586" stroke-width="0.5" stroke-miterlimit="10"/>
        <path d="M357.849 172.417H355.25V176.447H357.849V172.417Z" fill="#E5EEF5" stroke="#617586" stroke-width="0.5" stroke-miterlimit="10"/>
        <path d="M343.76 178.34H341.16V182.37H343.76V178.34Z" fill="#E5EEF5" stroke="#617586" stroke-width="0.5" stroke-miterlimit="10"/>
        <path d="M350.799 178.34H348.199V182.37H350.799V178.34Z" fill="#E5EEF5" stroke="#617586" stroke-width="0.5" stroke-miterlimit="10"/>
        <path d="M357.849 178.34H355.25V182.37H357.849V178.34Z" fill="#E5EEF5" stroke="#617586" stroke-width="0.5" stroke-miterlimit="10"/>
        <path d="M343.76 184.25H341.16V188.28H343.76V184.25Z" fill="#E5EEF5" stroke="#617586" stroke-width="0.5" stroke-miterlimit="10"/>
        <path d="M350.799 184.25H348.199V188.28H350.799V184.25Z" fill="#E5EEF5" stroke="#617586" stroke-width="0.5" stroke-miterlimit="10"/>
        <path d="M357.849 184.25H355.25V188.28H357.849V184.25Z" fill="#E5EEF5" stroke="#617586" stroke-width="0.5" stroke-miterlimit="10"/>
        <path d="M365 153.369L358.183 147H341.626L334 153.369H365Z" fill="#E5EEF5" stroke="#617586" stroke-width="0.5" stroke-miterlimit="1"/>
        <path d="M252 112.999H164V198.999H252V112.999Z" fill="#E5EEF5" stroke="#617586" stroke-width="0.5" stroke-linejoin="round"/>
        <path d="M181.699 126.597H174.334V134.182H181.699V126.597Z" fill="#E5EEF5" stroke="#617586" stroke-width="0.5" stroke-miterlimit="10"/>
        <path d="M201.689 126.597H194.324V134.182H201.689V126.597Z" fill="#E5EEF5" stroke="#617586" stroke-width="0.5" stroke-miterlimit="10"/>
        <path d="M221.678 126.597H214.312V134.182H221.678V126.597Z" fill="#E5EEF5" stroke="#617586" stroke-width="0.5" stroke-miterlimit="10"/>
        <path d="M241.666 126.597H234.301V134.182H241.666V126.597Z" fill="#E5EEF5" stroke="#617586" stroke-width="0.5" stroke-miterlimit="10"/>
        <path d="M181.699 137.742H174.334V145.327H181.699V137.742Z" fill="#E5EEF5" stroke="#617586" stroke-width="0.5" stroke-miterlimit="10"/>
        <path d="M201.689 137.742H194.324V145.327H201.689V137.742Z" fill="#E5EEF5" stroke="#617586" stroke-width="0.5" stroke-miterlimit="10"/>
        <path d="M221.678 137.742H214.312V145.327H221.678V137.742Z" fill="#E5EEF5" stroke="#617586" stroke-width="0.5" stroke-miterlimit="10"/>
        <path d="M241.666 137.742H234.301V145.327H241.666V137.742Z" fill="#E5EEF5" stroke="#617586" stroke-width="0.5" stroke-miterlimit="10"/>
        <path d="M181.699 148.899H174.334V156.484H181.699V148.899Z" fill="#E5EEF5" stroke="#617586" stroke-width="0.5" stroke-miterlimit="10"/>
        <path d="M201.689 148.899H194.324V156.484H201.689V148.899Z" fill="#E5EEF5" stroke="#617586" stroke-width="0.5" stroke-miterlimit="10"/>
        <path d="M221.678 148.899H214.312V156.484H221.678V148.899Z" fill="#E5EEF5" stroke="#617586" stroke-width="0.5" stroke-miterlimit="10"/>
        <path d="M241.666 148.899H234.301V156.484H241.666V148.899Z" fill="#E5EEF5" stroke="#617586" stroke-width="0.5" stroke-miterlimit="10"/>
        <path d="M181.699 160.057H174.334V167.642H181.699V160.057Z" fill="#E5EEF5" stroke="#617586" stroke-width="0.5" stroke-miterlimit="10"/>
        <path d="M201.689 160.057H194.324V167.642H201.689V160.057Z" fill="#E5EEF5" stroke="#617586" stroke-width="0.5" stroke-miterlimit="10"/>
        <path d="M221.678 160.057H214.312V167.642H221.678V160.057Z" fill="#E5EEF5" stroke="#617586" stroke-width="0.5" stroke-miterlimit="10"/>
        <path d="M241.666 160.057H234.301V167.642H241.666V160.057Z" fill="#E5EEF5" stroke="#617586" stroke-width="0.5" stroke-miterlimit="10"/>
        <path d="M181.699 171.214H174.334V178.799H181.699V171.214Z" fill="#E5EEF5" stroke="#617586" stroke-width="0.5" stroke-miterlimit="10"/>
        <path d="M201.689 171.214H194.324V178.799H201.689V171.214Z" fill="#E5EEF5" stroke="#617586" stroke-width="0.5" stroke-miterlimit="10"/>
        <path d="M221.678 171.214H214.312V178.799H221.678V171.214Z" fill="#E5EEF5" stroke="#617586" stroke-width="0.5" stroke-miterlimit="10"/>
        <path d="M241.666 171.214H234.301V178.799H241.666V171.214Z" fill="#E5EEF5" stroke="#617586" stroke-width="0.5" stroke-miterlimit="10"/>
        <path d="M252 113L232.645 101H185.647L164 113H252Z" fill="#E5EEF5" stroke="#617586" stroke-width="0.5" stroke-linejoin="round"/>
        <path d="M252 115.364H164" stroke="#617586" stroke-width="0.5" stroke-miterlimit="10"/>
        <path d="M252 185.59H164" stroke="#617586" stroke-width="0.5" stroke-miterlimit="10"/>
        <path d="M282.275 198.998H285.85V171.544C285.85 165.903 289.903 161.203 295.25 160.243L295.121 160.153C294.653 160.093 294.185 160.062 293.707 160.062C287.394 160.062 282.275 165.203 282.275 171.544V198.998Z" fill="#617586" stroke="#617586" stroke-width="0.5" stroke-miterlimit="10"/>
        <path d="M345.604 129.688H340.107V198.998H345.604V129.688Z" fill="#617586" stroke="#617586" stroke-width="0.5" stroke-miterlimit="10"/>
        <path d="M278.203 123.195V198.997H282.276V171.532C282.276 165.192 287.394 160.051 293.707 160.051C300.019 160.051 305.137 165.192 305.137 171.532V198.997H309.21V123.195H278.193H278.203Z" fill="#E5EEF5" stroke="#617586" stroke-width="0.5" stroke-miterlimit="10"/>
        <path d="M278.182 133.156H247.295V150.089H278.182V133.156Z" fill="#E5EEF5" stroke="#617586" stroke-width="0.5" stroke-miterlimit="10"/>
        <path d="M278.182 129.688H247.295V131.388H278.182V129.688Z" fill="#E5EEF5" stroke="#617586" stroke-width="0.5" stroke-miterlimit="10"/>
        <path d="M247.316 150.094V199.001H256.228V183.299C256.228 179.678 259.155 176.738 262.76 176.738C266.364 176.738 269.292 179.678 269.292 183.299V199.001H278.203V150.094H247.316Z" fill="#E5EEF5" stroke="#617586" stroke-width="0.5" stroke-miterlimit="10"/>
        <path d="M269.013 159.793H256.506V167.974H269.013V159.793Z" fill="#E5EEF5" stroke="#617586" stroke-width="0.5" stroke-miterlimit="10"/>
        <path d="M262.741 145.581C264.874 145.581 266.604 143.844 266.604 141.701C266.604 139.558 264.874 137.82 262.741 137.82C260.607 137.82 258.877 139.558 258.877 141.701C258.877 143.844 260.607 145.581 262.741 145.581Z" fill="#E5EEF5" stroke="#617586" stroke-width="0.5" stroke-miterlimit="10"/>
        <path d="M282.544 171.177H247.515L245.623 169.406H284.456L282.544 171.177Z" fill="#E5EEF5" stroke="#617586" stroke-width="0.5" stroke-miterlimit="10"/>
        <path d="M278.203 150.18H247.296L245.623 148.41H279.885L278.203 150.18Z" fill="#E5EEF5" stroke="#617586" stroke-width="0.5" stroke-miterlimit="10"/>
        <path d="M278.183 133.161H247.276L245.604 131.391H279.866L278.183 133.161Z" fill="#E5EEF5" stroke="#617586" stroke-width="0.5" stroke-miterlimit="10"/>
        <path d="M309.22 123.196H278.204L276.531 121.426H310.903L309.22 123.196Z" fill="#E5EEF5" stroke="#617586" stroke-width="0.5" stroke-miterlimit="10"/>
        <path d="M340.086 133.156H309.199V150.089H340.086V133.156Z" fill="#E5EEF5" stroke="#617586" stroke-width="0.5" stroke-miterlimit="10"/>
        <path d="M340.086 129.688H309.199V131.388H340.086V129.688Z" fill="#E5EEF5" stroke="#617586" stroke-width="0.5" stroke-miterlimit="10"/>
        <path d="M309.219 150.094V199.001H318.13V183.299C318.13 179.678 321.058 176.738 324.662 176.738C328.267 176.738 331.194 179.678 331.194 183.299V199.001H340.106V150.094H309.219Z" fill="#E5EEF5" stroke="#617586" stroke-width="0.5" stroke-miterlimit="10"/>
        <path d="M330.917 159.793H318.41V167.974H330.917V159.793Z" fill="#E5EEF5" stroke="#617586" stroke-width="0.5" stroke-miterlimit="10"/>
        <path d="M324.643 145.581C326.777 145.581 328.507 143.844 328.507 141.701C328.507 139.558 326.777 137.82 324.643 137.82C322.509 137.82 320.779 139.558 320.779 141.701C320.779 143.844 322.509 145.581 324.643 145.581Z" fill="#E5EEF5" stroke="#617586" stroke-width="0.5" stroke-miterlimit="10"/>
        <path d="M339.897 171.177H305.097L303.215 169.406H341.789L339.897 171.177Z" fill="#E5EEF5" stroke="#617586" stroke-width="0.5" stroke-miterlimit="10"/>
        <path d="M340.105 150.18H309.198L307.525 148.41H341.788L340.105 150.18Z" fill="#E5EEF5" stroke="#617586" stroke-width="0.5" stroke-miterlimit="10"/>
        <path d="M340.087 133.161H309.181L307.508 131.391H341.77L340.087 133.161Z" fill="#E5EEF5" stroke="#617586" stroke-width="0.5" stroke-miterlimit="10"/>
        <path d="M315.503 157.715H312.227V185.649H315.503V157.715Z" fill="#E5EEF5" stroke="#617586" stroke-width="0.5" stroke-miterlimit="10"/>
        <path d="M316.189 155.164H311.539L312.226 157.714H315.502L316.189 155.164Z" fill="#E5EEF5" stroke="#617586" stroke-width="0.5" stroke-miterlimit="10"/>
        <path d="M316.549 186.77H311.182V198.991H316.549V186.77Z" fill="#E5EEF5" stroke="#617586" stroke-width="0.5" stroke-miterlimit="10"/>
        <path d="M316.549 185.648H311.182V186.779H316.549V185.648Z" fill="#E5EEF5" stroke="#617586" stroke-width="0.5" stroke-miterlimit="10"/>
        <path d="M316.549 151.504H311.182V155.164H316.549V151.504Z" fill="#E5EEF5" stroke="#617586" stroke-width="0.5" stroke-miterlimit="10"/>
        <path d="M316.917 148.152H310.812L311.719 151.503H316.01L316.917 148.152Z" fill="#E5EEF5" stroke="#617586" stroke-width="0.5" stroke-miterlimit="10"/>
        <path d="M317.384 147.109H310.334V148.15H317.384V147.109Z" fill="#E5EEF5" stroke="#617586" stroke-width="0.5" stroke-miterlimit="10"/>
        <path d="M311.34 147.112V142.281H312.236L312.376 139.921L312.545 138.941C312.545 138.941 312.515 138.07 311.738 136.69C310.962 135.31 312.505 135.24 313.322 135.8L313.571 135.5C313.571 135.5 313.232 135.31 313.232 135.02C313.232 134.73 313.76 133.8 314.068 133.88C314.377 133.96 314.905 134.28 314.696 134.85C314.487 135.42 314.317 135.84 314.317 135.84L314.367 135.8C315.194 135.24 316.737 135.31 315.95 136.69C315.164 138.07 315.144 138.941 315.144 138.941L315.313 139.921L315.453 142.281H316.349V147.112H311.33H311.34Z" fill="#E5EEF5" stroke="#617586" stroke-width="0.5" stroke-miterlimit="10"/>
        <path d="M337.2 157.715H333.924V185.649H337.2V157.715Z" fill="#E5EEF5" stroke="#617586" stroke-width="0.5" stroke-miterlimit="10"/>
        <path d="M337.887 155.164H333.236L333.923 157.714H337.199L337.887 155.164Z" fill="#E5EEF5" stroke="#617586" stroke-width="0.5" stroke-miterlimit="10"/>
        <path d="M338.244 186.77H332.877V198.991H338.244V186.77Z" fill="#E5EEF5" stroke="#617586" stroke-width="0.5" stroke-miterlimit="10"/>
        <path d="M338.244 185.648H332.877V186.779H338.244V185.648Z" fill="#E5EEF5" stroke="#617586" stroke-width="0.5" stroke-miterlimit="10"/>
        <path d="M338.244 151.504H332.877V155.164H338.244V151.504Z" fill="#E5EEF5" stroke="#617586" stroke-width="0.5" stroke-miterlimit="10"/>
        <path d="M338.614 148.152H332.51L333.416 151.503H337.708L338.614 148.152Z" fill="#E5EEF5" stroke="#617586" stroke-width="0.5" stroke-miterlimit="10"/>
        <path d="M339.091 147.109H332.041V148.15H339.091V147.109Z" fill="#E5EEF5" stroke="#617586" stroke-width="0.5" stroke-miterlimit="10"/>
        <path d="M333.037 147.112V142.281H333.933L334.073 139.921L334.242 138.941C334.242 138.941 334.212 138.07 333.436 136.69C332.659 135.31 334.202 135.24 335.019 135.8L335.268 135.5C335.268 135.5 334.929 135.31 334.929 135.02C334.929 134.73 335.457 133.8 335.766 133.88C336.074 133.96 336.602 134.28 336.393 134.85C336.184 135.42 336.015 135.84 336.015 135.84L336.064 135.8C336.891 135.24 338.434 135.31 337.648 136.69C336.861 138.07 336.841 138.941 336.841 138.941L337.01 139.921L337.15 142.281H338.046V147.112H333.027H333.037Z" fill="#E5EEF5" stroke="#617586" stroke-width="0.5" stroke-miterlimit="10"/>
        <path d="M309.2 148.41H278.203V150.18H309.2V148.41Z" fill="#E5EEF5" stroke="#617586" stroke-width="0.5" stroke-miterlimit="10"/>
        <path d="M305.844 137.238H282.176V139.389H305.844V137.238Z" fill="#E5EEF5" stroke="#617586" stroke-width="0.5" stroke-miterlimit="10"/>
        <path d="M305.844 117.297H282.176V121.427H305.844V117.297Z" fill="#E5EEF5" stroke="#617586" stroke-width="0.5" stroke-miterlimit="10"/>
        <path d="M284.018 114.446C283.849 114.416 283.321 113.746 283.74 113.576C284.158 113.406 284.158 112.925 284.327 112.455C284.496 111.985 284.994 111.385 284.994 111.385C284.994 111.385 285.831 110.375 286.727 111.075C287.623 111.775 288.38 113.576 288.29 113.826C288.201 114.076 289.017 115.036 289.127 115.346C289.236 115.656 288.818 117.086 288.878 117.286H287.006C287.006 117.286 287.065 116.726 287.424 116.696C287.782 116.666 286.757 116.246 286.528 116.446C286.299 116.646 286 117.286 286 117.286H284.715C284.715 117.286 284.656 117.066 285.134 116.946C285.612 116.826 285.502 116.136 285.243 115.906C285.243 115.906 284.317 115.256 284.148 114.526L284.008 114.446H284.018Z" fill="#617586"/>
        <path d="M304.51 114.446C304.679 114.416 305.207 113.746 304.788 113.576C304.37 113.406 304.37 112.925 304.201 112.455C304.032 111.985 303.534 111.385 303.534 111.385C303.534 111.385 302.697 110.375 301.801 111.075C300.905 111.775 300.148 113.576 300.238 113.826C300.327 114.076 299.511 115.036 299.401 115.346C299.292 115.656 299.71 117.086 299.65 117.286H301.522C301.522 117.286 301.462 116.726 301.104 116.696C300.745 116.666 301.771 116.246 302 116.446C302.229 116.646 302.528 117.286 302.528 117.286H303.812C303.812 117.286 303.872 117.066 303.394 116.946C302.916 116.826 303.026 116.136 303.285 115.906C303.285 115.906 304.211 115.256 304.38 114.526L304.519 114.446H304.51Z" fill="#617586"/>
        <path d="M290.65 110.125C290.59 110.125 289.306 110.846 289.326 111.576C289.346 112.306 289.216 114.016 289.515 114.376C289.814 114.736 289.595 115.236 289.644 115.616C289.694 115.996 290.122 116.776 290.122 116.836C290.122 116.896 289.744 117.017 289.764 117.267H291.258C291.258 117.267 291.088 116.816 291.258 116.686C291.427 116.556 291.805 117.267 291.805 117.267H293.249C293.249 117.267 293.438 116.856 293.249 116.546C293.06 116.236 293.1 114.626 293.209 114.376C293.319 114.126 293.837 109.715 290.65 110.115V110.125Z" fill="#617586"/>
        <path d="M294.791 104.824C294.393 104.804 294.044 105.104 293.964 105.494C293.885 105.924 293.795 106.524 293.925 106.774C294.134 107.175 294.472 107.285 294.472 107.285V107.725C294.472 107.725 293.257 107.615 292.999 107.915C292.74 108.215 292.072 108.925 292.182 109.285C292.291 109.645 292.6 110.335 292.979 110.675C293.357 111.015 293.815 116.386 293.715 116.896C293.616 117.406 293.566 117.286 293.566 117.286H299.003C299.003 117.286 298.734 116.916 298.684 116.626C298.635 116.336 298.684 115.846 298.814 115.576C298.943 115.306 299.381 113.976 299.192 113.706C299.003 113.435 299.909 113.135 299.82 112.815C299.73 112.495 298.894 111.505 298.894 111.175C298.894 110.845 299.192 110.075 298.814 110.115C298.435 110.155 297.888 110.395 297.888 110.395C297.888 110.395 298.117 109.805 298.137 109.615C298.864 102.414 298.137 103.674 298.007 105.104C297.878 106.534 297.798 108.565 297.689 108.685C297.579 108.805 297.39 109.125 297.39 109.295C297.39 109.465 296.633 110.115 296.633 110.115C296.633 110.115 296.563 108.225 295.976 107.885C295.388 107.545 295.408 107.255 295.558 106.955C295.677 106.704 295.747 104.894 294.771 104.834L294.791 104.824Z" fill="#617586"/>
        <path d="M256.217 198.998H258.258V183.295C258.258 180.065 260.578 177.384 263.635 176.834L263.566 176.784C263.297 176.754 263.028 176.734 262.759 176.734C259.154 176.734 256.227 179.675 256.227 183.295V198.998" fill="#617586"/>
        <path d="M256.217 198.998H258.258V183.295C258.258 180.065 260.578 177.384 263.635 176.834L263.566 176.784C263.297 176.754 263.028 176.734 262.759 176.734C259.154 176.734 256.227 179.675 256.227 183.295V198.998" stroke="#617586" stroke-width="0.5" stroke-miterlimit="10"/>
        <path d="M318.131 198.998H320.172V183.295C320.172 180.065 322.492 177.384 325.549 176.834L325.48 176.784C325.211 176.754 324.942 176.734 324.673 176.734C321.068 176.734 318.141 179.675 318.141 183.295V198.998" fill="#617586"/>
        <path d="M318.131 198.998H320.172V183.295C320.172 180.065 322.492 177.384 325.549 176.834L325.48 176.784C325.211 176.754 324.942 176.734 324.673 176.734C321.068 176.734 318.141 179.675 318.141 183.295V198.998" stroke="#617586" stroke-width="0.5" stroke-miterlimit="10"/>
        <path d="M275.296 157.715H272.02V185.649H275.296V157.715Z" fill="#E5EEF5" stroke="#617586" stroke-width="0.5" stroke-miterlimit="10"/>
        <path d="M275.982 155.164H271.332L272.019 157.714H275.295L275.982 155.164Z" fill="#E5EEF5" stroke="#617586" stroke-width="0.5" stroke-miterlimit="10"/>
        <path d="M276.342 186.77H270.975V198.991H276.342V186.77Z" fill="#E5EEF5" stroke="#617586" stroke-width="0.5" stroke-miterlimit="10"/>
        <path d="M276.342 185.648H270.975V186.779H276.342V185.648Z" fill="#E5EEF5" stroke="#617586" stroke-width="0.5" stroke-miterlimit="10"/>
        <path d="M276.342 151.504H270.975V155.164H276.342V151.504Z" fill="#E5EEF5" stroke="#617586" stroke-width="0.5" stroke-miterlimit="10"/>
        <path d="M276.71 148.152H270.605L271.512 151.503H275.803L276.71 148.152Z" fill="#E5EEF5" stroke="#617586" stroke-width="0.5" stroke-miterlimit="10"/>
        <path d="M277.179 147.109H270.129V148.15H277.179V147.109Z" fill="#E5EEF5" stroke="#617586" stroke-width="0.5" stroke-miterlimit="10"/>
        <path d="M271.135 147.112V142.281H272.031L272.171 139.921L272.34 138.941C272.34 138.941 272.31 138.07 271.533 136.69C270.757 135.31 272.3 135.24 273.117 135.8L273.365 135.5C273.365 135.5 273.027 135.31 273.027 135.02C273.027 134.73 273.555 133.8 273.863 133.88C274.172 133.96 274.7 134.28 274.491 134.85C274.282 135.42 274.112 135.84 274.112 135.84L274.162 135.8C274.989 135.24 276.532 135.31 275.745 136.69C274.959 138.07 274.939 138.941 274.939 138.941L275.108 139.921L275.248 142.281H276.144C276.144 142.281 276.144 146.972 276.144 147.112H271.125H271.135Z" fill="#E5EEF5" stroke="#617586" stroke-width="0.5" stroke-miterlimit="10"/>
        <path d="M253.6 157.715H250.324V185.649H253.6V157.715Z" fill="#E5EEF5" stroke="#617586" stroke-width="0.5" stroke-miterlimit="10"/>
        <path d="M254.285 155.164H249.625L250.322 157.714H253.598L254.285 155.164Z" fill="#E5EEF5" stroke="#617586" stroke-width="0.5" stroke-miterlimit="10"/>
        <path d="M254.645 186.77H249.277V198.991H254.645V186.77Z" fill="#E5EEF5" stroke="#617586" stroke-width="0.5" stroke-miterlimit="10"/>
        <path d="M254.645 185.648H249.277V186.779H254.645V185.648Z" fill="#E5EEF5" stroke="#617586" stroke-width="0.5" stroke-miterlimit="10"/>
        <path d="M254.645 151.504H249.277V155.164H254.645V151.504Z" fill="#E5EEF5" stroke="#617586" stroke-width="0.5" stroke-miterlimit="10"/>
        <path d="M255.013 148.152H248.898L249.805 151.503H254.106L255.013 148.152Z" fill="#E5EEF5" stroke="#617586" stroke-width="0.5" stroke-miterlimit="10"/>
        <path d="M255.482 147.109H248.432V148.15H255.482V147.109Z" fill="#E5EEF5" stroke="#617586" stroke-width="0.5" stroke-miterlimit="10"/>
        <path d="M249.438 147.112V142.281H250.334L250.473 139.921L250.643 138.941C250.643 138.941 250.613 138.07 249.836 136.69C249.059 135.31 250.603 135.24 251.419 135.8L251.668 135.5C251.668 135.5 251.33 135.31 251.33 135.02C251.33 134.73 251.857 133.8 252.166 133.88C252.475 133.96 253.003 134.28 252.793 134.85C252.584 135.42 252.415 135.84 252.415 135.84L252.465 135.8C253.291 135.24 254.835 135.31 254.048 136.69C253.261 138.07 253.242 138.941 253.242 138.941L253.411 139.921L253.55 142.281H254.446V147.112H249.428H249.438Z" fill="#E5EEF5" stroke="#617586" stroke-width="0.5" stroke-miterlimit="10"/>
        <path d="M113 199H331" stroke="#617586" stroke-width="0.5" stroke-miterlimit="2"/>
    </g>
    <path d="M20.1874 2.78125H18.8262V10.667H20.1874V2.78125Z" fill="#E5EEF5" stroke="#617586" stroke-width="0.5" stroke-miterlimit="10"/>
    <path d="M19.497 5.85887C20.8458 5.85887 21.9393 4.77117 21.9393 3.42943C21.9393 2.08769 20.8458 1 19.497 1C18.1481 1 17.0547 2.08769 17.0547 3.42943C17.0547 4.77117 18.1481 5.85887 19.497 5.85887Z" fill="#E5EEF5" stroke="#617586" stroke-width="0.5" stroke-miterlimit="10"/>
    <path d="M18.4853 10.2383C8.82683 10.2383 1 16.8694 1 25.0339C1 33.1984 8.82683 39.8296 18.4853 39.8296C19.0658 39.8296 19.6262 39.7997 20.1967 39.7599V10.3179C19.6363 10.2682 19.0658 10.2482 18.4853 10.2482V10.2383Z" fill="#E5EEF5" stroke="#617586" stroke-width="0.5" stroke-miterlimit="10"/>
    <path d="M35.971 25.0346C35.971 17.348 29.045 11.0354 20.1973 10.3086V39.7506C29.055 39.0237 35.971 32.7112 35.971 25.0246V25.0346Z" fill="#617586" stroke="#617586" stroke-width="0.5" stroke-miterlimit="10"/>
    <path d="M24.7707 95.9961H1V198.998H24.7707V95.9961Z" fill="#E5EEF5" stroke="#617586" stroke-width="0.5" stroke-miterlimit="10"/>
    <path d="M22.4897 70.1367H3.29297V95.9943H22.4897V70.1367Z" fill="#E5EEF5" stroke="#617586" stroke-width="0.5" stroke-miterlimit="10"/>
    <path d="M33.3087 70.1367H22.4785V95.9943H33.3087V70.1367Z" fill="#617586" stroke="#617586" stroke-width="0.5" stroke-miterlimit="10"/>
    <path d="M20.1879 45.1367H5.57422V70.138H20.1879V45.1367Z" fill="#E5EEF5" stroke="#617586" stroke-width="0.5" stroke-miterlimit="10"/>
    <path d="M20.197 36.1172H7.05469V45.138H20.197V36.1172Z" fill="#E5EEF5" stroke="#617586" stroke-width="0.5" stroke-miterlimit="10"/>
    <path d="M30.0865 36.1172H20.1973V45.138H30.0865V36.1172Z" fill="#617586" stroke="#617586" stroke-width="0.5" stroke-miterlimit="10"/>
    <path d="M14.6122 110.925C14.6122 110.035 13.8862 109.312 12.9907 109.312C12.0951 109.312 11.3691 110.035 11.3691 110.925V112.728C11.3691 113.618 12.0951 114.341 12.9907 114.341C13.8862 114.341 14.6122 113.618 14.6122 112.728V110.925Z" fill="#E5EEF5" stroke="#617586" stroke-width="0.5" stroke-miterlimit="10"/>
    <path d="M14.6122 124.711C14.6122 123.82 13.8862 123.098 12.9907 123.098C12.0951 123.098 11.3691 123.82 11.3691 124.711V126.513C11.3691 127.404 12.0951 128.126 12.9907 128.126C13.8862 128.126 14.6122 127.404 14.6122 126.513V124.711Z" fill="#E5EEF5" stroke="#617586" stroke-width="0.5" stroke-miterlimit="10"/>
    <path d="M14.6122 138.504C14.6122 137.613 13.8862 136.891 12.9907 136.891C12.0951 136.891 11.3691 137.613 11.3691 138.504V140.306C11.3691 141.197 12.0951 141.919 12.9907 141.919C13.8862 141.919 14.6122 141.197 14.6122 140.306V138.504Z" fill="#E5EEF5" stroke="#617586" stroke-width="0.5" stroke-miterlimit="10"/>
    <path d="M14.6122 152.293C14.6122 151.402 13.8862 150.68 12.9907 150.68C12.0951 150.68 11.3691 151.402 11.3691 152.293V154.095C11.3691 154.986 12.0951 155.708 12.9907 155.708C13.8862 155.708 14.6122 154.986 14.6122 154.095V152.293Z" fill="#E5EEF5" stroke="#617586" stroke-width="0.5" stroke-miterlimit="10"/>
    <path d="M24.9809 95.9961H1V98.0571H24.9809V95.9961Z" fill="#E5EEF5" stroke="#617586" stroke-width="0.5" stroke-miterlimit="10"/>
    <path d="M14.6122 166.074C14.6122 165.183 13.8862 164.461 12.9907 164.461C12.0951 164.461 11.3691 165.183 11.3691 166.074V167.876C11.3691 168.767 12.0951 169.489 12.9907 169.489C13.8862 169.489 14.6122 168.767 14.6122 167.876V166.074Z" fill="#E5EEF5" stroke="#617586" stroke-width="0.5" stroke-miterlimit="10"/>
    <path d="M35.3995 95.9961H24.7695V198.998H35.3995V95.9961Z" fill="#617586" stroke="#617586" stroke-width="0.5" stroke-miterlimit="10"/>
    <path d="M26.8215 95.9961H24.7695V198.998H26.8215V95.9961Z" fill="#617586" stroke="#617586" stroke-width="0.5" stroke-miterlimit="10"/>
    <path d="M35.4113 95.9961H33.3594V198.998H35.4113V95.9961Z" fill="#617586" stroke="#617586" stroke-width="0.5" stroke-miterlimit="10"/>
    <path d="M14.6122 90.402C14.6122 89.5112 13.8862 88.7891 12.9907 88.7891C12.0951 88.7891 11.3691 89.5112 11.3691 90.402V92.2042C11.3691 93.095 12.0951 93.8172 12.9907 93.8172C13.8862 93.8172 14.6122 93.095 14.6122 92.2042V90.402Z" fill="#E5EEF5" stroke="#617586" stroke-width="0.5" stroke-miterlimit="10"/>
    <path d="M10.6986 39.9208C10.6986 39.2224 10.1295 38.6562 9.42744 38.6562C8.72538 38.6562 8.15625 39.2224 8.15625 39.9208V41.3446C8.15625 42.0429 8.72538 42.6091 9.42744 42.6091C10.1295 42.6091 10.6986 42.0429 10.6986 41.3446V39.9208Z" fill="#E5EEF5" stroke="#617586" stroke-width="0.5" stroke-miterlimit="10"/>
    <path d="M14.9428 39.9208C14.9428 39.2224 14.3736 38.6562 13.6716 38.6562C12.9695 38.6562 12.4004 39.2224 12.4004 39.9208V41.3446C12.4004 42.0429 12.9695 42.6091 13.6716 42.6091C14.3736 42.6091 14.9428 42.0429 14.9428 41.3446V39.9208Z" fill="#E5EEF5" stroke="#617586" stroke-width="0.5" stroke-miterlimit="10"/>
    <path d="M17.7456 38.6562H17.7356C17.133 38.6562 16.6445 39.1421 16.6445 39.7415V41.5238C16.6445 42.1232 17.133 42.6091 17.7356 42.6091H17.7456C18.3481 42.6091 18.8366 42.1232 18.8366 41.5238V39.7415C18.8366 39.1421 18.3481 38.6562 17.7456 38.6562Z" fill="#E5EEF5" stroke="#617586" stroke-width="0.5" stroke-miterlimit="10"/>
    <path d="M23.1591 39.5524C23.1591 39.0575 22.7558 38.6562 22.2583 38.6562C21.7607 38.6562 21.3574 39.0575 21.3574 39.5524V41.713C21.3574 42.2079 21.7607 42.6091 22.2583 42.6091C22.7558 42.6091 23.1591 42.2079 23.1591 41.713V39.5524Z" fill="#617586" stroke="#617586" stroke-width="0.5" stroke-miterlimit="10"/>
    <path d="M26.1728 39.5524C26.1728 39.0575 25.7695 38.6562 25.2719 38.6562C24.7744 38.6562 24.3711 39.0575 24.3711 39.5524V41.713C24.3711 42.2079 24.7744 42.6091 25.2719 42.6091C25.7695 42.6091 26.1728 42.2079 26.1728 41.713V39.5524Z" fill="#617586" stroke="#617586" stroke-width="0.5" stroke-miterlimit="10"/>
    <path d="M28.1538 38.6562H28.1438C27.7181 38.6562 27.373 38.9995 27.373 39.4229V41.8424C27.373 42.2658 27.7181 42.6091 28.1438 42.6091H28.1538C28.5794 42.6091 28.9245 42.2658 28.9245 41.8424V39.4229C28.9245 38.9995 28.5794 38.6562 28.1538 38.6562Z" fill="#617586" stroke="#617586" stroke-width="0.5" stroke-miterlimit="10"/>
    <path d="M15.6424 67.5581C15.5122 58.2088 14.3211 50.8906 12.8798 50.8906C11.4384 50.8906 10.2473 58.2088 10.1172 67.5581H15.6424Z" fill="#E5EEF5" stroke="#617586" stroke-width="0.5" stroke-miterlimit="10"/>
    <path d="M31.6981 45.1367H20.1973V70.138H31.6981V45.1367Z" fill="#617586" stroke="#617586" stroke-width="0.5" stroke-miterlimit="10"/>
    <path d="M28.1136 67.5581C28.0135 58.2088 27.0726 50.8906 25.9416 50.8906C24.8105 50.8906 23.8696 58.2088 23.7695 67.5581H28.1136Z" fill="#617586" stroke="#617586" stroke-width="0.5" stroke-miterlimit="10"/>
    <path d="M12.99 86.1488C15.8204 86.1488 18.1148 83.8664 18.1148 81.051C18.1148 78.2355 15.8204 75.9531 12.99 75.9531C10.1597 75.9531 7.86523 78.2355 7.86523 81.051C7.86523 83.8664 10.1597 86.1488 12.99 86.1488Z" fill="#E5EEF5" stroke="#617586" stroke-width="0.5" stroke-miterlimit="10"/>
    <path d="M12.9913 84.6864C15.009 84.6864 16.6447 83.0593 16.6447 81.0522C16.6447 79.0451 15.009 77.418 12.9913 77.418C10.9736 77.418 9.33789 79.0451 9.33789 81.0522C9.33789 83.0593 10.9736 84.6864 12.9913 84.6864Z" fill="#E5EEF5" stroke="#617586" stroke-width="0.5" stroke-miterlimit="10"/>
    <path d="M28.954 89.8843C28.954 89.2794 28.4611 88.7891 27.853 88.7891C27.2449 88.7891 26.752 89.2794 26.752 89.8843V92.722C26.752 93.3268 27.2449 93.8172 27.853 93.8172C28.4611 93.8172 28.954 93.3268 28.954 92.722V89.8843Z" fill="#617586" stroke="#617586" stroke-width="0.5" stroke-miterlimit="10"/>
    <path d="M27.8544 86.1488C29.7781 86.1488 31.3376 83.8664 31.3376 81.051C31.3376 78.2355 29.7781 75.9531 27.8544 75.9531C25.9306 75.9531 24.3711 78.2355 24.3711 81.051C24.3711 83.8664 25.9306 86.1488 27.8544 86.1488Z" fill="#617586" stroke="#617586" stroke-width="0.5" stroke-miterlimit="10"/>
    <path d="M27.8534 84.6864C29.2244 84.6864 30.3357 83.0593 30.3357 81.0522C30.3357 79.0451 29.2244 77.418 27.8534 77.418C26.4825 77.418 25.3711 79.0451 25.3711 81.0522C25.3711 83.0593 26.4825 84.6864 27.8534 84.6864Z" fill="#617586" stroke="#617586" stroke-width="0.5" stroke-miterlimit="10"/>
    <path d="M34.3791 116.137H25.791V118.198H34.3791V116.137Z" fill="#617586" stroke="#617586" stroke-width="0.5" stroke-miterlimit="10"/>
    <path d="M30.8867 110.109C30.8867 109.669 30.5281 109.312 30.0859 109.312C29.6437 109.312 29.2852 109.669 29.2852 110.109V113.544C29.2852 113.984 29.6437 114.341 30.0859 114.341C30.5281 114.341 30.8867 113.984 30.8867 113.544V110.109Z" fill="#617586" stroke="#617586" stroke-width="0.5" stroke-miterlimit="10"/>
    <path d="M34.3791 129.93H25.791V131.991H34.3791V129.93Z" fill="#617586" stroke="#617586" stroke-width="0.5" stroke-miterlimit="10"/>
    <path d="M30.8867 123.894C30.8867 123.454 30.5281 123.098 30.0859 123.098C29.6437 123.098 29.2852 123.454 29.2852 123.894V127.329C29.2852 127.769 29.6437 128.126 30.0859 128.126C30.5281 128.126 30.8867 127.769 30.8867 127.329V123.894Z" fill="#617586" stroke="#617586" stroke-width="0.5" stroke-miterlimit="10"/>
    <path d="M34.3791 143.719H25.791V145.78H34.3791V143.719Z" fill="#617586" stroke="#617586" stroke-width="0.5" stroke-miterlimit="10"/>
    <path d="M30.8867 137.687C30.8867 137.247 30.5281 136.891 30.0859 136.891C29.6437 136.891 29.2852 137.247 29.2852 137.687V141.122C29.2852 141.562 29.6437 141.919 30.0859 141.919C30.5281 141.919 30.8867 141.562 30.8867 141.122V137.687Z" fill="#617586" stroke="#617586" stroke-width="0.5" stroke-miterlimit="10"/>
    <path d="M34.3791 157.508H25.791V159.569H34.3791V157.508Z" fill="#617586" stroke="#617586" stroke-width="0.5" stroke-miterlimit="10"/>
    <path d="M30.8867 151.476C30.8867 151.036 30.5281 150.68 30.0859 150.68C29.6437 150.68 29.2852 151.036 29.2852 151.476V154.911C29.2852 155.351 29.6437 155.708 30.0859 155.708C30.5281 155.708 30.8867 155.351 30.8867 154.911V151.476Z" fill="#617586" stroke="#617586" stroke-width="0.5" stroke-miterlimit="10"/>
    <path d="M12.8809 50.8906V67.5581" stroke="#617586" stroke-width="0.5" stroke-miterlimit="10"/>
    <path d="M24.9809 116.137H1V118.198H24.9809V116.137Z" fill="#E5EEF5" stroke="#617586" stroke-width="0.5" stroke-miterlimit="10"/>
    <path d="M24.9809 129.93H1V131.991H24.9809V129.93Z" fill="#E5EEF5" stroke="#617586" stroke-width="0.5" stroke-miterlimit="10"/>
    <path d="M24.9809 143.719H1V145.78H24.9809V143.719Z" fill="#E5EEF5" stroke="#617586" stroke-width="0.5" stroke-miterlimit="10"/>
    <path d="M24.9809 157.508H1V159.569H24.9809V157.508Z" fill="#E5EEF5" stroke="#617586" stroke-width="0.5" stroke-miterlimit="10"/>
    <path d="M24.9809 171.289H1V173.35H24.9809V171.289Z" fill="#E5EEF5" stroke="#617586" stroke-width="0.5" stroke-miterlimit="10"/>
    <path d="M64.4648 2.78125H63.1035V10.667H64.4648V2.78125Z" fill="#E5EEF5" stroke="#617586" stroke-width="0.5" stroke-miterlimit="10"/>
    <path d="M63.7743 5.85887C65.1232 5.85887 66.2166 4.77117 66.2166 3.42943C66.2166 2.08769 65.1232 1 63.7743 1C62.4255 1 61.332 2.08769 61.332 3.42943C61.332 4.77117 62.4255 5.85887 63.7743 5.85887Z" fill="#E5EEF5" stroke="#617586" stroke-width="0.5" stroke-miterlimit="10"/>
    <path d="M62.7645 10.2383C53.1061 10.2383 45.2793 16.8595 45.2793 25.0339C45.2793 33.2084 53.1061 39.8296 62.7645 39.8296C63.3451 39.8296 63.9055 39.7997 64.476 39.7599V10.3179C63.9155 10.2682 63.3451 10.2482 62.7645 10.2482V10.2383Z" fill="#E5EEF5" stroke="#617586" stroke-width="0.5" stroke-miterlimit="10"/>
    <path d="M80.2386 25.0346C80.2386 17.348 73.3126 11.0354 64.4648 10.3086V39.7506C73.3226 39.0237 80.2386 32.7112 80.2386 25.0246V25.0346Z" fill="#617586" stroke="#617586" stroke-width="0.5" stroke-miterlimit="10"/>
    <path d="M69.05 95.9961H45.2793V198.998H69.05V95.9961Z" fill="#E5EEF5" stroke="#617586" stroke-width="0.5" stroke-miterlimit="10"/>
    <path d="M66.7573 70.1367H47.5605V95.9943H66.7573V70.1367Z" fill="#E5EEF5" stroke="#617586" stroke-width="0.5" stroke-miterlimit="10"/>
    <path d="M77.588 70.1367H66.7578V95.9943H77.588V70.1367Z" fill="#617586" stroke="#617586" stroke-width="0.5" stroke-miterlimit="10"/>
    <path d="M64.4653 45.1367H49.8516V70.138H64.4653V45.1367Z" fill="#E5EEF5" stroke="#617586" stroke-width="0.5" stroke-miterlimit="10"/>
    <path d="M64.4763 36.1172H51.334V45.138H64.4763V36.1172Z" fill="#E5EEF5" stroke="#617586" stroke-width="0.5" stroke-miterlimit="10"/>
    <path d="M74.3541 36.1172H64.4648V45.138H74.3541V36.1172Z" fill="#617586" stroke="#617586" stroke-width="0.5" stroke-miterlimit="10"/>
    <path d="M69.2602 116.137H45.2793V118.198H69.2602V116.137Z" fill="#E5EEF5" stroke="#617586" stroke-width="0.5" stroke-miterlimit="10"/>
    <path d="M58.8915 110.925C58.8915 110.035 58.1655 109.312 57.27 109.312C56.3744 109.312 55.6484 110.035 55.6484 110.925V112.728C55.6484 113.618 56.3744 114.341 57.27 114.341C58.1655 114.341 58.8915 113.618 58.8915 112.728V110.925Z" fill="#E5EEF5" stroke="#617586" stroke-width="0.5" stroke-miterlimit="10"/>
    <path d="M69.2602 129.93H45.2793V131.991H69.2602V129.93Z" fill="#E5EEF5" stroke="#617586" stroke-width="0.5" stroke-miterlimit="10"/>
    <path d="M58.8915 124.711C58.8915 123.82 58.1655 123.098 57.27 123.098C56.3744 123.098 55.6484 123.82 55.6484 124.711V126.513C55.6484 127.404 56.3744 128.126 57.27 128.126C58.1655 128.126 58.8915 127.404 58.8915 126.513V124.711Z" fill="#E5EEF5" stroke="#617586" stroke-width="0.5" stroke-miterlimit="10"/>
    <path d="M69.2602 143.719H45.2793V145.78H69.2602V143.719Z" fill="#E5EEF5" stroke="#617586" stroke-width="0.5" stroke-miterlimit="10"/>
    <path d="M58.8915 138.504C58.8915 137.613 58.1655 136.891 57.27 136.891C56.3744 136.891 55.6484 137.613 55.6484 138.504V140.306C55.6484 141.197 56.3744 141.919 57.27 141.919C58.1655 141.919 58.8915 141.197 58.8915 140.306V138.504Z" fill="#E5EEF5" stroke="#617586" stroke-width="0.5" stroke-miterlimit="10"/>
    <path d="M69.2602 157.508H45.2793V159.569H69.2602V157.508Z" fill="#E5EEF5" stroke="#617586" stroke-width="0.5" stroke-miterlimit="10"/>
    <path d="M58.8915 152.293C58.8915 151.402 58.1655 150.68 57.27 150.68C56.3744 150.68 55.6484 151.402 55.6484 152.293V154.095C55.6484 154.986 56.3744 155.708 57.27 155.708C58.1655 155.708 58.8915 154.986 58.8915 154.095V152.293Z" fill="#E5EEF5" stroke="#617586" stroke-width="0.5" stroke-miterlimit="10"/>
    <path d="M69.2602 171.289H45.2793V173.35H69.2602V171.289Z" fill="#E5EEF5" stroke="#617586" stroke-width="0.5" stroke-miterlimit="10"/>
    <path d="M69.2602 95.9961H45.2793V98.0571H69.2602V95.9961Z" fill="#E5EEF5" stroke="#617586" stroke-width="0.5" stroke-miterlimit="10"/>
    <path d="M58.8915 166.074C58.8915 165.183 58.1655 164.461 57.27 164.461C56.3744 164.461 55.6484 165.183 55.6484 166.074V167.876C55.6484 168.767 56.3744 169.489 57.27 169.489C58.1655 169.489 58.8915 168.767 58.8915 167.876V166.074Z" fill="#E5EEF5" stroke="#617586" stroke-width="0.5" stroke-miterlimit="10"/>
    <path d="M79.669 95.9961H69.0391V198.998H79.669V95.9961Z" fill="#617586" stroke="#617586" stroke-width="0.5" stroke-miterlimit="10"/>
    <path d="M71.091 95.9961H69.0391V198.998H71.091V95.9961Z" fill="#617586" stroke="#617586" stroke-width="0.5" stroke-miterlimit="10"/>
    <path d="M79.6789 95.9961H77.627V198.998H79.6789V95.9961Z" fill="#617586" stroke="#617586" stroke-width="0.5" stroke-miterlimit="10"/>
    <path d="M58.8915 90.402C58.8915 89.5112 58.1655 88.7891 57.27 88.7891C56.3744 88.7891 55.6484 89.5112 55.6484 90.402V92.2042C55.6484 93.095 56.3744 93.8172 57.27 93.8172C58.1655 93.8172 58.8915 93.095 58.8915 92.2042V90.402Z" fill="#E5EEF5" stroke="#617586" stroke-width="0.5" stroke-miterlimit="10"/>
    <path d="M54.9779 39.9208C54.9779 39.2224 54.4088 38.6562 53.7067 38.6562C53.0047 38.6562 52.4355 39.2224 52.4355 39.9208V41.3446C52.4355 42.0429 53.0047 42.6091 53.7067 42.6091C54.4088 42.6091 54.9779 42.0429 54.9779 41.3446V39.9208Z" fill="#E5EEF5" stroke="#617586" stroke-width="0.5" stroke-miterlimit="10"/>
    <path d="M59.2201 39.9208C59.2201 39.2224 58.651 38.6562 57.9489 38.6562C57.2469 38.6562 56.6777 39.2224 56.6777 39.9208V41.3446C56.6777 42.0429 57.2469 42.6091 57.9489 42.6091C58.651 42.6091 59.2201 42.0429 59.2201 41.3446V39.9208Z" fill="#E5EEF5" stroke="#617586" stroke-width="0.5" stroke-miterlimit="10"/>
    <path d="M62.0229 38.6562H62.0129C61.4103 38.6562 60.9219 39.1421 60.9219 39.7415V41.5238C60.9219 42.1232 61.4103 42.6091 62.0129 42.6091H62.0229C62.6255 42.6091 63.1139 42.1232 63.1139 41.5238V39.7415C63.1139 39.1421 62.6255 38.6562 62.0229 38.6562Z" fill="#E5EEF5" stroke="#617586" stroke-width="0.5" stroke-miterlimit="10"/>
    <path d="M67.4384 39.5524C67.4384 39.0575 67.0351 38.6562 66.5376 38.6562C66.04 38.6562 65.6367 39.0575 65.6367 39.5524V41.713C65.6367 42.2079 66.04 42.6091 66.5376 42.6091C67.0351 42.6091 67.4384 42.2079 67.4384 41.713V39.5524Z" fill="#617586" stroke="#617586" stroke-width="0.5" stroke-miterlimit="10"/>
    <path d="M70.4404 39.5524C70.4404 39.0575 70.037 38.6562 69.5395 38.6562C69.042 38.6562 68.6387 39.0575 68.6387 39.5524V41.713C68.6387 42.2079 69.042 42.6091 69.5395 42.6091C70.037 42.6091 70.4404 42.2079 70.4404 41.713V39.5524Z" fill="#617586" stroke="#617586" stroke-width="0.5" stroke-miterlimit="10"/>
    <path d="M72.4311 38.6562H72.4211C71.9955 38.6562 71.6504 38.9995 71.6504 39.4229V41.8424C71.6504 42.2658 71.9955 42.6091 72.4211 42.6091H72.4311C72.8568 42.6091 73.2018 42.2658 73.2018 41.8424V39.4229C73.2018 38.9995 72.8568 38.6562 72.4311 38.6562Z" fill="#617586" stroke="#617586" stroke-width="0.5" stroke-miterlimit="10"/>
    <path d="M59.9217 67.5581C59.7915 58.2088 58.6004 50.8906 57.1591 50.8906C55.7177 50.8906 54.5266 58.2088 54.3965 67.5581H59.9217Z" fill="#E5EEF5" stroke="#617586" stroke-width="0.5" stroke-miterlimit="10"/>
    <path d="M75.9656 45.1367H64.4648V70.138H75.9656V45.1367Z" fill="#617586" stroke="#617586" stroke-width="0.5" stroke-miterlimit="10"/>
    <path d="M72.3929 67.5581C72.2928 58.2088 71.3519 50.8906 70.2209 50.8906C69.0898 50.8906 68.1489 58.2088 68.0488 67.5581H72.3929Z" fill="#617586" stroke="#617586" stroke-width="0.5" stroke-miterlimit="10"/>
    <path d="M57.2693 86.1488C60.0997 86.1488 62.3941 83.8664 62.3941 81.051C62.3941 78.2355 60.0997 75.9531 57.2693 75.9531C54.439 75.9531 52.1445 78.2355 52.1445 81.051C52.1445 83.8664 54.439 86.1488 57.2693 86.1488Z" fill="#E5EEF5" stroke="#617586" stroke-width="0.5" stroke-miterlimit="10"/>
    <path d="M57.2687 84.6864C59.2864 84.6864 60.9221 83.0593 60.9221 81.0522C60.9221 79.0451 59.2864 77.418 57.2687 77.418C55.2509 77.418 53.6152 79.0451 53.6152 81.0522C53.6152 83.0593 55.2509 84.6864 57.2687 84.6864Z" fill="#E5EEF5" stroke="#617586" stroke-width="0.5" stroke-miterlimit="10"/>
    <path d="M73.2236 89.8843C73.2236 89.2794 72.7306 88.7891 72.1225 88.7891C71.5144 88.7891 71.0215 89.2794 71.0215 89.8843V92.722C71.0215 93.3268 71.5144 93.8172 72.1225 93.8172C72.7306 93.8172 73.2236 93.3268 73.2236 92.722V89.8843Z" fill="#617586" stroke="#617586" stroke-width="0.5" stroke-miterlimit="10"/>
    <path d="M72.1219 86.1488C74.0457 86.1488 75.6052 83.8664 75.6052 81.051C75.6052 78.2355 74.0457 75.9531 72.1219 75.9531C70.1982 75.9531 68.6387 78.2355 68.6387 81.051C68.6387 83.8664 70.1982 86.1488 72.1219 86.1488Z" fill="#617586" stroke="#617586" stroke-width="0.5" stroke-miterlimit="10"/>
    <path d="M72.121 84.6864C73.4919 84.6864 74.6033 83.0593 74.6033 81.0522C74.6033 79.0451 73.4919 77.418 72.121 77.418C70.75 77.418 69.6387 79.0451 69.6387 81.0522C69.6387 83.0593 70.75 84.6864 72.121 84.6864Z" fill="#617586" stroke="#617586" stroke-width="0.5" stroke-miterlimit="10"/>
    <path d="M78.6584 116.137H70.0703V118.198H78.6584V116.137Z" fill="#617586" stroke="#617586" stroke-width="0.5" stroke-miterlimit="10"/>
    <path d="M75.1542 110.109C75.1542 109.669 74.7957 109.312 74.3535 109.312C73.9112 109.312 73.5527 109.669 73.5527 110.109V113.544C73.5527 113.984 73.9112 114.341 74.3535 114.341C74.7957 114.341 75.1542 113.984 75.1542 113.544V110.109Z" fill="#617586" stroke="#617586" stroke-width="0.5" stroke-miterlimit="10"/>
    <path d="M78.6584 129.93H70.0703V131.991H78.6584V129.93Z" fill="#617586" stroke="#617586" stroke-width="0.5" stroke-miterlimit="10"/>
    <path d="M75.1542 123.894C75.1542 123.454 74.7957 123.098 74.3535 123.098C73.9112 123.098 73.5527 123.454 73.5527 123.894V127.329C73.5527 127.769 73.9112 128.126 74.3535 128.126C74.7957 128.126 75.1542 127.769 75.1542 127.329V123.894Z" fill="#617586" stroke="#617586" stroke-width="0.5" stroke-miterlimit="10"/>
    <path d="M78.6584 143.719H70.0703V145.78H78.6584V143.719Z" fill="#617586" stroke="#617586" stroke-width="0.5" stroke-miterlimit="10"/>
    <path d="M75.1542 137.687C75.1542 137.247 74.7957 136.891 74.3535 136.891C73.9112 136.891 73.5527 137.247 73.5527 137.687V141.122C73.5527 141.562 73.9112 141.919 74.3535 141.919C74.7957 141.919 75.1542 141.562 75.1542 141.122V137.687Z" fill="#617586" stroke="#617586" stroke-width="0.5" stroke-miterlimit="10"/>
    <path d="M78.6584 157.508H70.0703V159.569H78.6584V157.508Z" fill="#617586" stroke="#617586" stroke-width="0.5" stroke-miterlimit="10"/>
    <path d="M75.1542 151.476C75.1542 151.036 74.7957 150.68 74.3535 150.68C73.9112 150.68 73.5527 151.036 73.5527 151.476V154.911C73.5527 155.351 73.9112 155.708 74.3535 155.708C74.7957 155.708 75.1542 155.351 75.1542 154.911V151.476Z" fill="#617586" stroke="#617586" stroke-width="0.5" stroke-miterlimit="10"/>
    <path d="M57.1582 50.8906V67.5581" stroke="#617586" stroke-width="0.5" stroke-miterlimit="10"/>
    <path d="M176.273 83.4922H174.912V93.8571H176.273V83.4922Z" fill="#617586" stroke="#617586" stroke-width="0.5" stroke-miterlimit="10"/>
    <path d="M175.583 86.5581C176.932 86.5581 178.025 85.4704 178.025 84.1287C178.025 82.7869 176.932 81.6992 175.583 81.6992C174.234 81.6992 173.141 82.7869 173.141 84.1287C173.141 85.4704 174.234 86.5581 175.583 86.5581Z" fill="#617586" stroke="#617586" stroke-width="0.5" stroke-miterlimit="10"/>
    <path d="M176.884 146.168H27.6641V198.998H176.884V146.168Z" fill="#E5EEF5" stroke="#617586" stroke-width="0.5" stroke-miterlimit="10"/>
    <path d="M176.882 199H203.996V146.17H176.882V199Z" fill="#617586" stroke="#617586" stroke-width="0.5" stroke-miterlimit="10"/>
    <path d="M27.6641 146.169H176.884V93.418H45.88L27.6641 146.169Z" fill="#E5EEF5" stroke="#617586" stroke-width="0.5" stroke-miterlimit="10"/>
    <path d="M176.883 93.418V146.169H206.999L176.883 93.418Z" fill="#617586" stroke="#617586" stroke-width="0.5" stroke-miterlimit="10"/>
    <path d="M29.9355 139.566H176.884" stroke="#617586" stroke-width="0.5" stroke-miterlimit="10"/>
    <path d="M29.9355 136.891H176.884" stroke="#617586" stroke-width="0.5" stroke-miterlimit="10"/>
    <path d="M34.9492 192.348V166.74C34.9492 160.338 38.2823 148.648 42.3962 148.648C46.5101 148.648 49.8432 160.338 49.8432 166.74V192.348H34.9592H34.9492Z" fill="#E5EEF5" stroke="#617586" stroke-width="0.5" stroke-miterlimit="10"/>
    <path d="M36.0898 158.715H48.6817" stroke="#617586" stroke-width="0.5" stroke-miterlimit="10"/>
    <path d="M35.2695 162.797H49.5129" stroke="#617586" stroke-width="0.5" stroke-miterlimit="10"/>
    <path d="M39.7843 158.506C41.2271 158.506 42.3968 157.343 42.3968 155.907C42.3968 154.472 41.2271 153.309 39.7843 153.309C38.3415 153.309 37.1719 154.472 37.1719 155.907C37.1719 157.343 38.3415 158.506 39.7843 158.506Z" fill="#E5EEF5" stroke="#617586" stroke-width="0.5" stroke-miterlimit="10"/>
    <path d="M42.3957 153.994C43.8385 153.994 45.0081 152.831 45.0081 151.396C45.0081 149.96 43.8385 148.797 42.3957 148.797C40.9528 148.797 39.7832 149.96 39.7832 151.396C39.7832 152.831 40.9528 153.994 42.3957 153.994Z" fill="#E5EEF5" stroke="#617586" stroke-width="0.5" stroke-miterlimit="10"/>
    <path d="M45.0089 158.506C46.4518 158.506 47.6214 157.343 47.6214 155.907C47.6214 154.472 46.4518 153.309 45.0089 153.309C43.5661 153.309 42.3965 154.472 42.3965 155.907C42.3965 157.343 43.5661 158.506 45.0089 158.506Z" fill="#E5EEF5" stroke="#617586" stroke-width="0.5" stroke-miterlimit="10"/>
    <path d="M34.9492 166.879H49.8332" stroke="#617586" stroke-width="0.5" stroke-miterlimit="10"/>
    <path d="M34.9492 170.961H49.8332" stroke="#617586" stroke-width="0.5" stroke-miterlimit="10"/>
    <path d="M34.9492 175.031H49.8332" stroke="#617586" stroke-width="0.5" stroke-miterlimit="10"/>
    <path d="M39.7832 158.715V192.349" stroke="#617586" stroke-width="0.5" stroke-miterlimit="10"/>
    <path d="M45.0078 158.715V192.349" stroke="#617586" stroke-width="0.5" stroke-miterlimit="10"/>
    <path d="M34.9492 179.117H49.8332" stroke="#617586" stroke-width="0.5" stroke-miterlimit="10"/>
    <path d="M34.9492 183.195H49.8332" stroke="#617586" stroke-width="0.5" stroke-miterlimit="10"/>
    <path d="M34.9492 187.281H49.8332" stroke="#617586" stroke-width="0.5" stroke-miterlimit="10"/>
    <path d="M63.4844 192.348V166.74C63.4844 160.338 66.8175 148.648 70.9314 148.648C75.0452 148.648 78.3783 160.338 78.3783 166.74V192.348H63.4944H63.4844Z" fill="#E5EEF5" stroke="#617586" stroke-width="0.5" stroke-miterlimit="10"/>
    <path d="M64.625 158.715H77.2268" stroke="#617586" stroke-width="0.5" stroke-miterlimit="10"/>
    <path d="M63.8047 162.797H78.0481" stroke="#617586" stroke-width="0.5" stroke-miterlimit="10"/>
    <path d="M68.3195 158.506C69.7623 158.506 70.9319 157.343 70.9319 155.907C70.9319 154.472 69.7623 153.309 68.3195 153.309C66.8767 153.309 65.707 154.472 65.707 155.907C65.707 157.343 66.8767 158.506 68.3195 158.506Z" fill="#E5EEF5" stroke="#617586" stroke-width="0.5" stroke-miterlimit="10"/>
    <path d="M70.9308 153.994C72.3736 153.994 73.5433 152.831 73.5433 151.396C73.5433 149.96 72.3736 148.797 70.9308 148.797C69.488 148.797 68.3184 149.96 68.3184 151.396C68.3184 152.831 69.488 153.994 70.9308 153.994Z" fill="#E5EEF5" stroke="#617586" stroke-width="0.5" stroke-miterlimit="10"/>
    <path d="M73.5441 158.506C74.9869 158.506 76.1565 157.343 76.1565 155.907C76.1565 154.472 74.9869 153.309 73.5441 153.309C72.1013 153.309 70.9316 154.472 70.9316 155.907C70.9316 157.343 72.1013 158.506 73.5441 158.506Z" fill="#E5EEF5" stroke="#617586" stroke-width="0.5" stroke-miterlimit="10"/>
    <path d="M63.4844 166.879H78.3683" stroke="#617586" stroke-width="0.5" stroke-miterlimit="10"/>
    <path d="M63.4844 170.961H78.3683" stroke="#617586" stroke-width="0.5" stroke-miterlimit="10"/>
    <path d="M63.4844 175.031H78.3683" stroke="#617586" stroke-width="0.5" stroke-miterlimit="10"/>
    <path d="M68.3184 158.715V192.349" stroke="#617586" stroke-width="0.5" stroke-miterlimit="10"/>
    <path d="M73.543 158.715V192.349" stroke="#617586" stroke-width="0.5" stroke-miterlimit="10"/>
    <path d="M63.4844 179.117H78.3683" stroke="#617586" stroke-width="0.5" stroke-miterlimit="10"/>
    <path d="M63.4844 183.195H78.3683" stroke="#617586" stroke-width="0.5" stroke-miterlimit="10"/>
    <path d="M63.4844 187.281H78.3683" stroke="#617586" stroke-width="0.5" stroke-miterlimit="10"/>
    <path d="M92.0195 192.348V166.74C92.0195 160.338 95.3527 148.648 99.4665 148.648C103.58 148.648 106.913 160.338 106.913 166.74V192.348H92.0295H92.0195Z" fill="#E5EEF5" stroke="#617586" stroke-width="0.5" stroke-miterlimit="10"/>
    <path d="M93.1602 158.715H105.762" stroke="#617586" stroke-width="0.5" stroke-miterlimit="10"/>
    <path d="M92.3398 162.797H106.583" stroke="#617586" stroke-width="0.5" stroke-miterlimit="10"/>
    <path d="M96.8546 158.506C98.2974 158.506 99.4671 157.343 99.4671 155.907C99.4671 154.472 98.2974 153.309 96.8546 153.309C95.4118 153.309 94.2422 154.472 94.2422 155.907C94.2422 157.343 95.4118 158.506 96.8546 158.506Z" fill="#E5EEF5" stroke="#617586" stroke-width="0.5" stroke-miterlimit="10"/>
    <path d="M99.466 153.994C100.909 153.994 102.078 152.831 102.078 151.396C102.078 149.96 100.909 148.797 99.466 148.797C98.0232 148.797 96.8535 149.96 96.8535 151.396C96.8535 152.831 98.0232 153.994 99.466 153.994Z" fill="#E5EEF5" stroke="#617586" stroke-width="0.5" stroke-miterlimit="10"/>
    <path d="M102.077 158.506C103.52 158.506 104.69 157.343 104.69 155.907C104.69 154.472 103.52 153.309 102.077 153.309C100.634 153.309 99.4648 154.472 99.4648 155.907C99.4648 157.343 100.634 158.506 102.077 158.506Z" fill="#E5EEF5" stroke="#617586" stroke-width="0.5" stroke-miterlimit="10"/>
    <path d="M92.0195 166.879H106.903" stroke="#617586" stroke-width="0.5" stroke-miterlimit="10"/>
    <path d="M92.0195 170.961H106.903" stroke="#617586" stroke-width="0.5" stroke-miterlimit="10"/>
    <path d="M92.0195 175.031H106.903" stroke="#617586" stroke-width="0.5" stroke-miterlimit="10"/>
    <path d="M96.8535 158.715V192.349" stroke="#617586" stroke-width="0.5" stroke-miterlimit="10"/>
    <path d="M102.078 158.715V192.349" stroke="#617586" stroke-width="0.5" stroke-miterlimit="10"/>
    <path d="M92.0195 179.117H106.903" stroke="#617586" stroke-width="0.5" stroke-miterlimit="10"/>
    <path d="M92.0195 183.195H106.903" stroke="#617586" stroke-width="0.5" stroke-miterlimit="10"/>
    <path d="M92.0195 187.281H106.903" stroke="#617586" stroke-width="0.5" stroke-miterlimit="10"/>
    <path d="M120.555 192.348V166.74C120.555 160.338 123.888 148.648 128.002 148.648C132.116 148.648 135.449 160.338 135.449 166.74V192.348H120.565H120.555Z" fill="#E5EEF5" stroke="#617586" stroke-width="0.5" stroke-miterlimit="10"/>
    <path d="M121.695 158.715H134.297" stroke="#617586" stroke-width="0.5" stroke-miterlimit="10"/>
    <path d="M120.875 162.797H135.118" stroke="#617586" stroke-width="0.5" stroke-miterlimit="10"/>
    <path d="M125.388 158.506C126.831 158.506 128 157.343 128 155.907C128 154.472 126.831 153.309 125.388 153.309C123.945 153.309 122.775 154.472 122.775 155.907C122.775 157.343 123.945 158.506 125.388 158.506Z" fill="#E5EEF5" stroke="#617586" stroke-width="0.5" stroke-miterlimit="10"/>
    <path d="M128.001 153.994C129.444 153.994 130.614 152.831 130.614 151.396C130.614 149.96 129.444 148.797 128.001 148.797C126.558 148.797 125.389 149.96 125.389 151.396C125.389 152.831 126.558 153.994 128.001 153.994Z" fill="#E5EEF5" stroke="#617586" stroke-width="0.5" stroke-miterlimit="10"/>
    <path d="M130.622 158.506C132.065 158.506 133.235 157.343 133.235 155.907C133.235 154.472 132.065 153.309 130.622 153.309C129.179 153.309 128.01 154.472 128.01 155.907C128.01 157.343 129.179 158.506 130.622 158.506Z" fill="#E5EEF5" stroke="#617586" stroke-width="0.5" stroke-miterlimit="10"/>
    <path d="M120.555 166.879H135.439" stroke="#617586" stroke-width="0.5" stroke-miterlimit="10"/>
    <path d="M120.555 170.961H135.439" stroke="#617586" stroke-width="0.5" stroke-miterlimit="10"/>
    <path d="M120.555 175.031H135.439" stroke="#617586" stroke-width="0.5" stroke-miterlimit="10"/>
    <path d="M125.389 158.715V192.349" stroke="#617586" stroke-width="0.5" stroke-miterlimit="10"/>
    <path d="M130.623 158.715V192.349" stroke="#617586" stroke-width="0.5" stroke-miterlimit="10"/>
    <path d="M120.555 179.117H135.439" stroke="#617586" stroke-width="0.5" stroke-miterlimit="10"/>
    <path d="M120.555 183.195H135.439" stroke="#617586" stroke-width="0.5" stroke-miterlimit="10"/>
    <path d="M120.555 187.281H135.439" stroke="#617586" stroke-width="0.5" stroke-miterlimit="10"/>
    <path d="M149.09 192.348V166.74C149.09 160.338 152.423 148.648 156.537 148.648C160.651 148.648 163.984 160.338 163.984 166.74V192.348H149.1H149.09Z" fill="#E5EEF5" stroke="#617586" stroke-width="0.5" stroke-miterlimit="10"/>
    <path d="M150.23 158.715H162.832" stroke="#617586" stroke-width="0.5" stroke-miterlimit="10"/>
    <path d="M149.42 162.797H163.653" stroke="#617586" stroke-width="0.5" stroke-miterlimit="10"/>
    <path d="M153.923 158.506C155.366 158.506 156.535 157.343 156.535 155.907C156.535 154.472 155.366 153.309 153.923 153.309C152.48 153.309 151.311 154.472 151.311 155.907C151.311 157.343 152.48 158.506 153.923 158.506Z" fill="#E5EEF5" stroke="#617586" stroke-width="0.5" stroke-miterlimit="10"/>
    <path d="M156.546 153.994C157.989 153.994 159.158 152.831 159.158 151.396C159.158 149.96 157.989 148.797 156.546 148.797C155.103 148.797 153.934 149.96 153.934 151.396C153.934 152.831 155.103 153.994 156.546 153.994Z" fill="#E5EEF5" stroke="#617586" stroke-width="0.5" stroke-miterlimit="10"/>
    <path d="M159.157 158.506C160.6 158.506 161.77 157.343 161.77 155.907C161.77 154.472 160.6 153.309 159.157 153.309C157.715 153.309 156.545 154.472 156.545 155.907C156.545 157.343 157.715 158.506 159.157 158.506Z" fill="#E5EEF5" stroke="#617586" stroke-width="0.5" stroke-miterlimit="10"/>
    <path d="M149.09 166.879H163.984" stroke="#617586" stroke-width="0.5" stroke-miterlimit="10"/>
    <path d="M149.09 170.961H163.984" stroke="#617586" stroke-width="0.5" stroke-miterlimit="10"/>
    <path d="M149.09 175.031H163.984" stroke="#617586" stroke-width="0.5" stroke-miterlimit="10"/>
    <path d="M153.924 158.715V192.349" stroke="#617586" stroke-width="0.5" stroke-miterlimit="10"/>
    <path d="M159.158 158.715V192.349" stroke="#617586" stroke-width="0.5" stroke-miterlimit="10"/>
    <path d="M149.09 179.117H163.984" stroke="#617586" stroke-width="0.5" stroke-miterlimit="10"/>
    <path d="M149.09 183.195H163.984" stroke="#617586" stroke-width="0.5" stroke-miterlimit="10"/>
    <path d="M149.09 187.281H163.984" stroke="#617586" stroke-width="0.5" stroke-miterlimit="10"/>
    <path d="M3.29297 98.0586V116.14" stroke="#617586" stroke-width="0.5" stroke-miterlimit="10"/>
    <path d="M3.29297 118.199V129.928" stroke="#617586" stroke-width="0.5" stroke-miterlimit="10"/>
    <path d="M3.29297 131.988V143.717" stroke="#617586" stroke-width="0.5" stroke-miterlimit="10"/>
    <path d="M3.29297 145.781V157.51" stroke="#617586" stroke-width="0.5" stroke-miterlimit="10"/>
    <path d="M3.29297 159.57V171.289" stroke="#617586" stroke-width="0.5" stroke-miterlimit="10"/>
    <path d="M22.4785 159.57V171.289" stroke="#617586" stroke-width="0.5" stroke-miterlimit="10"/>
    <path d="M3.29297 173.352V199" stroke="#617586" stroke-width="0.5" stroke-miterlimit="10"/>
    <path d="M22.4785 145.781V157.51" stroke="#617586" stroke-width="0.5" stroke-miterlimit="10"/>
    <path d="M22.4785 131.988V143.717" stroke="#617586" stroke-width="0.5" stroke-miterlimit="10"/>
    <path d="M22.4785 118.199V129.928" stroke="#617586" stroke-width="0.5" stroke-miterlimit="10"/>
    <path d="M22.4785 98.0586V116.14" stroke="#617586" stroke-width="0.5" stroke-miterlimit="10"/>
    <path d="M22.4785 173.352V199" stroke="#617586" stroke-width="0.5" stroke-miterlimit="10"/>
</svg>
